<svg xmlns="http://www.w3.org/2000/svg" viewBox="0 0 1080 1080" xml:space="preserve">
  <path d="M308.62 758.02c.86.86.86.86 1.73 1.72l50.06-135.56-27.62-26.6-44.01-44.62c-6.9-6.86-6.9-17.16 0-24.02L402.7 415.68c6.9-6.86 6.9-17.16 0-24.02l-69.04-68.64c-6.9-6.86-17.26-6.86-24.16 0l-139.81 139c-21.58 19.73-35.38 48.05-35.38 78.94 0 29.17 12.08 55.77 31.07 74.65l143.24 142.41zM452.03 865.65L356 823.57c-8.41-3.96-13.01-13.75-8.99-23.02l253.46-577.88c3.96-8.41 13.75-13.01 23.02-8.99l96.03 42.08c8.41 3.96 13.01 13.75 8.99 23.02L475.05 856.66c-4.02 9.27-14.61 12.95-23.02 8.99zM911.88 463.72l-142.4-143.26-2.59-2.59-50.06 135.5 28.48 28.48 44.88 44.88c6.9 6.9 6.9 17.26 0 24.16L674.54 664.8c-6.9 6.9-6.9 17.26 0 24.16L743.58 758c6.9 6.9 17.26 6.9 24.16 0l139.82-139.8c21.58-19.85 35.38-48.33 35.38-79.4.01-29.34-12.08-56.1-31.06-75.08z"/>
</svg>
