<svg xmlns="http://www.w3.org/2000/svg" viewBox="0 0 500 140" xml:space="preserve">
  <path d="M141.98 88.52c-7.3 0-13.1-4.6-15.3-11.1-.9 3.3-2.7 6.3-5.3 8.7l-1.6 1.6c4.9 6.7 12.9 11 22.1 11 9.4 0 17.1-4.5 21.8-12l-7.8-6c-3.8 5.2-8.4 7.8-13.9 7.8z"/>
  <path d="M368.78 86.82c3.4 0 6 2.7 6 6.1 0 3.5-2.6 6.1-6 6.1-3.5 0-6.1-2.6-6.1-6.1-.1-3.4 2.6-6.1 6.1-6.1z"  />
  <path d="M172.78 91.62c-5.2-5.2-7.9-11.5-7.9-18.9s2.6-13.6 7.9-18.9c5.2-5.2 11.5-7.9 18.9-7.9s13.6 2.6 18.9 7.9c5.2 5.2 7.9 11.5 7.9 18.9s-2.6 13.7-7.9 18.9c-5.2 5.2-11.5 7.9-18.9 7.9s-13.7-2.6-18.9-7.9zm7.8-30c-3.1 3.1-4.6 6.8-4.6 11.1 0 4.4 1.5 8.1 4.6 11.2 3.1 3.1 6.8 4.6 11.1 4.6s8.1-1.5 11.1-4.6c3.1-3.1 4.6-6.8 4.6-11.2s-1.5-8.1-4.6-11.1c-3.1-3.1-6.8-4.6-11.1-4.6s-8.1 1.5-11.1 4.6zM249.08 98.72c-7.4 0-13.7-2.6-19-7.9-5.2-5.2-7.9-11.5-7.9-18.9 0-7.4 2.6-13.7 7.9-18.9 5.2-5.3 11.6-7.9 19-7.9 6.6-.1 11.8 1.5 15.7 4.7v-16.7h11v64.9h-11v-4c-3.1 3.1-8.3 4.7-15.7 4.7zm0-42.5c-4.4 0-8.1 1.5-11.2 4.6-3.1 3.1-4.6 6.8-4.6 11.1s1.5 8.1 4.6 11.1c3.1 3.1 6.8 4.6 11.2 4.6 4.4 0 8.1-1.5 11.1-4.6 3.1-3.1 4.6-6.8 4.6-11.1s-1.5-8.1-4.6-11.1c-3.1-3.1-6.8-4.6-11.1-4.6zM307.88 98.72c-7.4 0-13.7-2.6-18.9-7.9-5.2-5.2-7.9-11.5-7.9-18.9 0-7.4 2.6-13.7 7.9-19 5.2-5.2 11.5-7.9 18.9-7.9 7.4 0 12.7 1.5 15.8 4.6v-4h11v52.3h-11v-4c-3.2 3.3-8.4 4.8-15.8 4.8zm0-42.5c-4.3 0-8 1.5-11.1 4.6-3.1 3.1-4.6 6.8-4.6 11.1s1.5 8.1 4.5 11.2c3.1 3.1 6.8 4.6 11.1 4.6s8.1-1.5 11.2-4.6c3.1-3.1 4.6-6.8 4.6-11.1s-1.5-8.1-4.6-11.1c-3.1-3.2-6.8-4.7-11.1-4.7zM367.98 46.42h-24.5v52.3h11v-41.3h13.5v-11zM122.08 59.52c2.1 2.1 3.5 4.6 4.4 7.2 2-6.9 8-11.8 15.5-11.8 5.6 0 10.2 2.6 13.9 7.9l7.8-6.1c-4.5-7.5-12.2-12-21.8-12-9.3-.1-17.7 4.6-22.7 11.8l2.9 3z"/>
  <path d="M432.48 98.22h-8.8v-18.9c0-3.9-2.3-6.3-5.8-6.3s-6 2.5-6 6.1v19h-8.8v-18.8c0-3.9-2.3-6.3-5.8-6.3-3.6 0-6 2.4-6 6.3v18.8h-8.8v-32.3h8.1v2.9c2.2-2.3 5.4-3.6 9.2-3.6 4.3 0 7.5 1.6 9.6 4.6 2.6-2.9 6.3-4.6 10.8-4.6 7.6 0 12.2 5.2 12.2 13v20.1h.1zM444.78 85.02c1 4.1 4.4 6.4 9.1 6.4 3.2 0 6.2-1.1 9-3.3l3.7 6c-3.9 3.2-8.2 4.8-13 4.8-10 .2-17.9-7.6-17.7-16.9-.2-9.4 7.6-17.1 16.9-16.9 9 0 15.2 6.6 15.2 15 0 1.6-.2 3.2-.6 4.8h-22.6v.1zm14.7-6.3c-.1-4-3.1-6.5-7-6.5-3.7 0-6.7 2.6-7.7 6.5h14.7zM47.88 98.02l.2.2 5.8-15.71-3.2-3.08-5.1-5.17c-.8-.8-.8-1.99 0-2.78l13.2-13.12c.8-.8.8-1.99 0-2.78l-8-7.95c-.8-.8-2-.8-2.8 0l-16.2 16.11c-2.5 2.29-4.1 5.57-4.1 9.15 0 3.38 1.4 6.46 3.6 8.65l16.6 16.48zM64.49 110.49l-11.13-4.88c-.97-.46-1.51-1.59-1.04-2.67l29.37-66.96c.46-.97 1.59-1.51 2.67-1.04l11.13 4.88c.97.46 1.51 1.59 1.04 2.67l-29.37 66.96c-.46 1.07-1.69 1.5-2.67 1.04zM117.78 63.92l-16.5-16.6-.3-.3-5.8 15.7 3.3 3.3 5.2 5.2c.8.8.8 2 0 2.8l-13.4 13.2c-.8.8-.8 2 0 2.8l8 8c.8.8 2 .8 2.8 0l16.2-16.2c2.5-2.3 4.1-5.6 4.1-9.2 0-3.4-1.4-6.5-3.6-8.7z"  />
</svg>
