<svg id="flat" viewBox="0 0 512 512" xmlns="http://www.w3.org/2000/svg"><path d="m360 368-16 16-11.16 3.82-75.3 25.76-75.69 25.89-74.91 25.63-66.94 22.9h-16v-16l13.69-32.86 19.46-46.71 19.46-46.7 20.89-50.13 18.03-43.27 19.46-46.7 9.01-21.63 16-16 75.2 75.2 86.39 86.39z" fill="#d69651"/><g fill="#c78640"><path d="m181.85 439.47-74.91 25.63-69.25-25.96 19.46-46.71z"/><path d="m332.84 387.82-75.3 25.76-180.93-67.85 20.89-50.13z"/><path d="m321.59 329.59-206.06-77.26 19.46-46.7 100.21 37.57z"/></g><path d="m200 160 33.45253-33.45253a22.35447 22.35447 0 0 0 6.54747-15.80699 22.35449 22.35449 0 0 0 -13.54861-20.547l-20.83019-8.92725a88 88 0 0 1 -35.7351-28.08476l-9.8861-13.18147 24-16a84.068 84.068 0 0 0 43.36416 33.12137l9.52828 3.1761a51.34391 51.34391 0 0 1 35.10756 48.70913 51.34388 51.34388 0 0 1 -12.36071 33.41417l-35.63929 41.57923z" fill="#ffc431"/><path d="m312 120-8-48 48 16z" fill="#d1e4ff"/><path d="m272 19.508h16v32.985h-16z" fill="#fb6a83" transform="matrix(.243 -.97 .97 .243 177.165 298.909)"/><path d="m341.578 24h28.844v16h-28.844z" fill="#ffc431" transform="matrix(.832 -.555 .555 .832 42.04 202.848)"/><path d="m156 87.508h16v32.985h-16z" fill="#6173e8" transform="matrix(.97 -.243 .243 .97 -20.327 42.881)"/><path d="m352 312 33.45253-33.45253a22.35447 22.35447 0 0 1 15.80699-6.54747 22.35449 22.35449 0 0 1 20.547 13.54861l8.92722 20.83019a88 88 0 0 0 28.08476 35.7351l13.1815 9.8861 16-24a84.068 84.068 0 0 1 -33.12137-43.36416l-3.1761-9.52828a51.34391 51.34391 0 0 0 -48.70913-35.10756 51.34388 51.34388 0 0 0 -33.41417 12.36071l-41.57923 35.63929z" fill="#6173e8"/><path d="m416 208 48 8-16-48z" fill="#ffc431"/><path d="m468 239.508h16v32.985h-16z" fill="#fb6a83" transform="matrix(.97 -.243 .243 .97 -47.877 123.09)"/><path d="m465.578 148h28.844v16h-28.844z" fill="#d1e4ff" transform="matrix(.555 -.832 .832 .555 83.944 468.851)"/><path d="m400 331.508h16v32.985h-16z" fill="#6173e8" transform="matrix(.243 -.97 .97 .243 -28.564 659.416)"/><path d="m256 224 31.86147-37.19594a62.70438 62.70438 0 0 1 40.701-21.53322l.90836-.10093a65.33609 65.33609 0 0 0 56.65665-50.7434v-.00007a44.862 44.862 0 0 1 31.98972-33.54931l61.8828-16.87713 8 32-43.26059 9.61346a45.02964 45.02964 0 0 0 -34.41627 35.27454l-.22714 1.15585a68.55691 68.55691 0 0 1 -60.44813 54.99139l-.94546.09455a70.182 70.182 0 0 0 -47.11109 24.93534c-10.48504 12.60734-21.59132 25.93487-21.59132 25.93487z" fill="#fb6a83"/></svg>